<?xml version="1.0" encoding="UTF-8"?>
<svg width="800" height="600" xmlns="http://www.w3.org/2000/svg">
  <rect width="800" height="600" fill="#ffffff"/>
  <rect x="70" y="50" width="700" height="490" fill="#f8f9fa" stroke="#cccccc" stroke-width="1"/>
  <g stroke="#dddddd" stroke-width="1" stroke-dasharray="4,3">
    <line x1="70" y1="50" x2="770" y2="50"/>
    <line x1="70" y1="50" x2="70" y2="540"/>
    <line x1="70" y1="148" x2="770" y2="148"/>
    <line x1="210" y1="50" x2="210" y2="540"/>
    <line x1="70" y1="246" x2="770" y2="246"/>
    <line x1="350" y1="50" x2="350" y2="540"/>
    <line x1="70" y1="344" x2="770" y2="344"/>
    <line x1="490" y1="50" x2="490" y2="540"/>
    <line x1="70" y1="442" x2="770" y2="442"/>
    <line x1="630" y1="50" x2="630" y2="540"/>
    <line x1="70" y1="540" x2="770" y2="540"/>
    <line x1="770" y1="50" x2="770" y2="540"/>
  </g>
  <g stroke="#333333" stroke-width="2">
    <line x1="70" y1="540" x2="770" y2="540"/>
    <line x1="70" y1="50" x2="70" y2="540"/>
  </g>
  <g font-family="Arial,sans-serif" font-size="11" fill="#444444">
    <line x1="70" y1="540" x2="70" y2="545" stroke="#333333" stroke-width="1"/>
    <text x="70" y="558" text-anchor="middle">29.6</text>
    <line x1="65" y1="50" x2="70" y2="50" stroke="#333333" stroke-width="1"/>
    <text x="62" y="54" text-anchor="end">17.9</text>
    <line x1="210" y1="540" x2="210" y2="545" stroke="#333333" stroke-width="1"/>
    <text x="210" y="558" text-anchor="middle">39.4</text>
    <line x1="65" y1="148" x2="70" y2="148" stroke="#333333" stroke-width="1"/>
    <text x="62" y="152" text-anchor="end">14.3</text>
    <line x1="350" y1="540" x2="350" y2="545" stroke="#333333" stroke-width="1"/>
    <text x="350" y="558" text-anchor="middle">49.1</text>
    <line x1="65" y1="246" x2="70" y2="246" stroke="#333333" stroke-width="1"/>
    <text x="62" y="250" text-anchor="end">10.7</text>
    <line x1="490" y1="540" x2="490" y2="545" stroke="#333333" stroke-width="1"/>
    <text x="490" y="558" text-anchor="middle">58.9</text>
    <line x1="65" y1="344" x2="70" y2="344" stroke="#333333" stroke-width="1"/>
    <text x="62" y="348" text-anchor="end">7.14</text>
    <line x1="630" y1="540" x2="630" y2="545" stroke="#333333" stroke-width="1"/>
    <text x="630" y="558" text-anchor="middle">68.7</text>
    <line x1="65" y1="442" x2="70" y2="442" stroke="#333333" stroke-width="1"/>
    <text x="62" y="446" text-anchor="end">3.57</text>
    <line x1="770" y1="540" x2="770" y2="545" stroke="#333333" stroke-width="1"/>
    <text x="770" y="558" text-anchor="middle">78.5</text>
    <line x1="65" y1="540" x2="70" y2="540" stroke="#333333" stroke-width="1"/>
    <text x="62" y="544" text-anchor="end">0</text>
  </g>
  <text x="420" y="590" text-anchor="middle" font-family="Arial,sans-serif" font-size="13" fill="#222222">Value</text>
  <text transform="rotate(-90)" x="-295" y="18" text-anchor="middle" font-family="Arial,sans-serif" font-size="13" fill="#222222">Frequency</text>
  <text x="420" y="38" text-anchor="middle" font-family="Arial,sans-serif" font-size="16" font-weight="bold" fill="#111111">Normal Distribution Histogram</text>
  <clipPath id="plotarea">
    <rect x="70" y="50" width="700" height="490"/>
  </clipPath>
  <g clip-path="url(#plotarea)">
    <rect x="70" y="430.196" width="46.6667" height="109.804" fill="#2196F3" opacity="0.85" stroke="white" stroke-width="1"/>
    <rect x="116.667" y="430.196" width="46.6667" height="109.804" fill="#2196F3" opacity="0.85" stroke="white" stroke-width="1"/>
    <rect x="163.333" y="457.647" width="46.6667" height="82.3529" fill="#2196F3" opacity="0.85" stroke="white" stroke-width="1"/>
    <rect x="210" y="292.941" width="46.6667" height="247.059" fill="#2196F3" opacity="0.85" stroke="white" stroke-width="1"/>
    <rect x="256.667" y="128.235" width="46.6667" height="411.765" fill="#2196F3" opacity="0.85" stroke="white" stroke-width="1"/>
    <rect x="303.333" y="292.941" width="46.6667" height="247.059" fill="#2196F3" opacity="0.85" stroke="white" stroke-width="1"/>
    <rect x="350" y="73.3333" width="46.6667" height="466.667" fill="#2196F3" opacity="0.85" stroke="white" stroke-width="1"/>
    <rect x="396.667" y="292.941" width="46.6667" height="247.059" fill="#2196F3" opacity="0.85" stroke="white" stroke-width="1"/>
    <rect x="443.333" y="320.392" width="46.6667" height="219.608" fill="#2196F3" opacity="0.85" stroke="white" stroke-width="1"/>
    <rect x="490" y="155.686" width="46.6667" height="384.314" fill="#2196F3" opacity="0.85" stroke="white" stroke-width="1"/>
    <rect x="536.667" y="402.745" width="46.6667" height="137.255" fill="#2196F3" opacity="0.85" stroke="white" stroke-width="1"/>
    <rect x="583.333" y="485.098" width="46.6667" height="54.902" fill="#2196F3" opacity="0.85" stroke="white" stroke-width="1"/>
    <rect x="630" y="540" width="46.6667" height="0" fill="#2196F3" opacity="0.85" stroke="white" stroke-width="1"/>
    <rect x="676.667" y="540" width="46.6667" height="0" fill="#2196F3" opacity="0.85" stroke="white" stroke-width="1"/>
    <rect x="723.333" y="512.549" width="46.6667" height="27.451" fill="#2196F3" opacity="0.85" stroke="white" stroke-width="1"/>
  </g>
  <rect x="640" y="60" width="120" height="30" fill="white" stroke="#cccccc" stroke-width="1" rx="3"/>
  <rect x="648" y="70" width="14" height="12" fill="#2196F3" rx="2"/>
  <text x="668" y="76" font-family="Arial,sans-serif" font-size="11" fill="#333333">Normal Data</text>
</svg>
