<?xml version="1.0" encoding="UTF-8"?>
<svg width="800" height="600" xmlns="http://www.w3.org/2000/svg">
  <rect width="800" height="600" fill="#ffffff"/>
  <rect x="70" y="50" width="700" height="490" fill="#f8f9fa" stroke="#cccccc" stroke-width="1"/>
  <g stroke="#dddddd" stroke-width="1" stroke-dasharray="4,3">
    <line x1="70" y1="50" x2="770" y2="50"/>
    <line x1="70" y1="50" x2="70" y2="540"/>
    <line x1="70" y1="148" x2="770" y2="148"/>
    <line x1="210" y1="50" x2="210" y2="540"/>
    <line x1="70" y1="246" x2="770" y2="246"/>
    <line x1="350" y1="50" x2="350" y2="540"/>
    <line x1="70" y1="344" x2="770" y2="344"/>
    <line x1="490" y1="50" x2="490" y2="540"/>
    <line x1="70" y1="442" x2="770" y2="442"/>
    <line x1="630" y1="50" x2="630" y2="540"/>
    <line x1="70" y1="540" x2="770" y2="540"/>
    <line x1="770" y1="50" x2="770" y2="540"/>
  </g>
  <g stroke="#333333" stroke-width="2">
    <line x1="70" y1="540" x2="770" y2="540"/>
    <line x1="70" y1="50" x2="70" y2="540"/>
  </g>
  <g font-family="Arial,sans-serif" font-size="11" fill="#444444">
    <line x1="70" y1="540" x2="70" y2="545" stroke="#333333" stroke-width="1"/>
    <text x="70" y="558" text-anchor="middle">0</text>
    <line x1="65" y1="50" x2="70" y2="50" stroke="#333333" stroke-width="1"/>
    <text x="62" y="54" text-anchor="end">26.2</text>
    <line x1="210" y1="540" x2="210" y2="545" stroke="#333333" stroke-width="1"/>
    <text x="210" y="558" text-anchor="middle">1</text>
    <line x1="65" y1="148" x2="70" y2="148" stroke="#333333" stroke-width="1"/>
    <text x="62" y="152" text-anchor="end">21</text>
    <line x1="350" y1="540" x2="350" y2="545" stroke="#333333" stroke-width="1"/>
    <text x="350" y="558" text-anchor="middle">2</text>
    <line x1="65" y1="246" x2="70" y2="246" stroke="#333333" stroke-width="1"/>
    <text x="62" y="250" text-anchor="end">15.8</text>
    <line x1="490" y1="540" x2="490" y2="545" stroke="#333333" stroke-width="1"/>
    <text x="490" y="558" text-anchor="middle">3</text>
    <line x1="65" y1="344" x2="70" y2="344" stroke="#333333" stroke-width="1"/>
    <text x="62" y="348" text-anchor="end">10.5</text>
    <line x1="630" y1="540" x2="630" y2="545" stroke="#333333" stroke-width="1"/>
    <text x="630" y="558" text-anchor="middle">4</text>
    <line x1="65" y1="442" x2="70" y2="442" stroke="#333333" stroke-width="1"/>
    <text x="62" y="446" text-anchor="end">5.25</text>
    <line x1="770" y1="540" x2="770" y2="545" stroke="#333333" stroke-width="1"/>
    <text x="770" y="558" text-anchor="middle">5</text>
    <line x1="65" y1="540" x2="70" y2="540" stroke="#333333" stroke-width="1"/>
    <text x="62" y="544" text-anchor="end">0</text>
  </g>
  <text x="420" y="590" text-anchor="middle" font-family="Arial,sans-serif" font-size="13" fill="#222222">X</text>
  <text transform="rotate(-90)" x="-295" y="18" text-anchor="middle" font-family="Arial,sans-serif" font-size="13" fill="#222222">Y</text>
  <text x="420" y="38" text-anchor="middle" font-family="Arial,sans-serif" font-size="16" font-weight="bold" fill="#111111">Quadratic Function</text>
  <clipPath id="plotarea">
    <rect x="70" y="50" width="700" height="490"/>
  </clipPath>
  <g clip-path="url(#plotarea)">
    <circle cx="70" cy="540" r="4" fill="#2196F3" opacity="0.8"/>
    <circle cx="210" cy="521.333" r="4" fill="#2196F3" opacity="0.8"/>
    <circle cx="350" cy="465.333" r="4" fill="#2196F3" opacity="0.8"/>
    <circle cx="490" cy="372" r="4" fill="#2196F3" opacity="0.8"/>
    <circle cx="630" cy="241.333" r="4" fill="#2196F3" opacity="0.8"/>
    <circle cx="770" cy="73.3333" r="4" fill="#2196F3" opacity="0.8"/>
  </g>
  <rect x="640" y="60" width="120" height="30" fill="white" stroke="#cccccc" stroke-width="1" rx="3"/>
  <rect x="648" y="70" width="14" height="12" fill="#2196F3" rx="2"/>
  <text x="668" y="76" font-family="Arial,sans-serif" font-size="11" fill="#333333">data</text>
</svg>
