<?xml version="1.0" encoding="UTF-8"?>
<svg width="800" height="600" xmlns="http://www.w3.org/2000/svg">
  <rect width="800" height="600" fill="#ffffff"/>
  <rect x="70" y="50" width="700" height="490" fill="#f8f9fa" stroke="#cccccc" stroke-width="1"/>
  <g stroke="#dddddd" stroke-width="1" stroke-dasharray="4,3">
    <line x1="70" y1="50" x2="770" y2="50"/>
    <line x1="70" y1="50" x2="70" y2="540"/>
    <line x1="70" y1="148" x2="770" y2="148"/>
    <line x1="210" y1="50" x2="210" y2="540"/>
    <line x1="70" y1="246" x2="770" y2="246"/>
    <line x1="350" y1="50" x2="350" y2="540"/>
    <line x1="70" y1="344" x2="770" y2="344"/>
    <line x1="490" y1="50" x2="490" y2="540"/>
    <line x1="70" y1="442" x2="770" y2="442"/>
    <line x1="630" y1="50" x2="630" y2="540"/>
    <line x1="70" y1="540" x2="770" y2="540"/>
    <line x1="770" y1="50" x2="770" y2="540"/>
  </g>
  <g stroke="#333333" stroke-width="2">
    <line x1="70" y1="540" x2="770" y2="540"/>
    <line x1="70" y1="50" x2="70" y2="540"/>
  </g>
  <g font-family="Arial,sans-serif" font-size="11" fill="#444444">
    <line x1="70" y1="540" x2="70" y2="545" stroke="#333333" stroke-width="1"/>
    <text x="70" y="558" text-anchor="middle">1</text>
    <line x1="65" y1="50" x2="70" y2="50" stroke="#333333" stroke-width="1"/>
    <text x="62" y="54" text-anchor="end">1.157e+04</text>
    <line x1="210" y1="540" x2="210" y2="545" stroke="#333333" stroke-width="1"/>
    <text x="210" y="558" text-anchor="middle">3.2</text>
    <line x1="65" y1="148" x2="70" y2="148" stroke="#333333" stroke-width="1"/>
    <text x="62" y="152" text-anchor="end">1.002e+04</text>
    <line x1="350" y1="540" x2="350" y2="545" stroke="#333333" stroke-width="1"/>
    <text x="350" y="558" text-anchor="middle">5.4</text>
    <line x1="65" y1="246" x2="70" y2="246" stroke="#333333" stroke-width="1"/>
    <text x="62" y="250" text-anchor="end">8.46e+03</text>
    <line x1="490" y1="540" x2="490" y2="545" stroke="#333333" stroke-width="1"/>
    <text x="490" y="558" text-anchor="middle">7.6</text>
    <line x1="65" y1="344" x2="70" y2="344" stroke="#333333" stroke-width="1"/>
    <text x="62" y="348" text-anchor="end">6.91e+03</text>
    <line x1="630" y1="540" x2="630" y2="545" stroke="#333333" stroke-width="1"/>
    <text x="630" y="558" text-anchor="middle">9.8</text>
    <line x1="65" y1="442" x2="70" y2="442" stroke="#333333" stroke-width="1"/>
    <text x="62" y="446" text-anchor="end">5.35e+03</text>
    <line x1="770" y1="540" x2="770" y2="545" stroke="#333333" stroke-width="1"/>
    <text x="770" y="558" text-anchor="middle">12</text>
    <line x1="65" y1="540" x2="70" y2="540" stroke="#333333" stroke-width="1"/>
    <text x="62" y="544" text-anchor="end">3.8e+03</text>
  </g>
  <text x="420" y="590" text-anchor="middle" font-family="Arial,sans-serif" font-size="13" fill="#222222">Month</text>
  <text transform="rotate(-90)" x="-295" y="18" text-anchor="middle" font-family="Arial,sans-serif" font-size="13" fill="#222222">Revenue ($)</text>
  <text x="420" y="38" text-anchor="middle" font-family="Arial,sans-serif" font-size="16" font-weight="bold" fill="#111111">Annual Revenue Trend</text>
  <clipPath id="plotarea">
    <rect x="70" y="50" width="700" height="490"/>
  </clipPath>
  <g clip-path="url(#plotarea)">
    <polyline fill="none" stroke="#2196F3" stroke-width="2" stroke-linejoin="round" points="70,514.775 133.636,540 197.273,458.018 260.909,382.342 324.545,325.586 388.182,268.829 451.818,300.36 515.455,218.378 579.091,186.847 642.727,230.991 706.364,161.622 770,73.3333"/>
    <circle cx="70" cy="514.775" r="3" fill="#2196F3"/>
    <circle cx="133.636" cy="540" r="3" fill="#2196F3"/>
    <circle cx="197.273" cy="458.018" r="3" fill="#2196F3"/>
    <circle cx="260.909" cy="382.342" r="3" fill="#2196F3"/>
    <circle cx="324.545" cy="325.586" r="3" fill="#2196F3"/>
    <circle cx="388.182" cy="268.829" r="3" fill="#2196F3"/>
    <circle cx="451.818" cy="300.36" r="3" fill="#2196F3"/>
    <circle cx="515.455" cy="218.378" r="3" fill="#2196F3"/>
    <circle cx="579.091" cy="186.847" r="3" fill="#2196F3"/>
    <circle cx="642.727" cy="230.991" r="3" fill="#2196F3"/>
    <circle cx="706.364" cy="161.622" r="3" fill="#2196F3"/>
    <circle cx="770" cy="73.3333" r="3" fill="#2196F3"/>
  </g>
  <rect x="640" y="60" width="120" height="30" fill="white" stroke="#cccccc" stroke-width="1" rx="3"/>
  <rect x="648" y="70" width="14" height="12" fill="#2196F3" rx="2"/>
  <text x="668" y="76" font-family="Arial,sans-serif" font-size="11" fill="#333333">Monthly Revenue</text>
</svg>
