<?xml version="1.0" encoding="UTF-8"?>
<svg width="800" height="600" xmlns="http://www.w3.org/2000/svg">
  <rect width="800" height="600" fill="#ffffff"/>
  <rect x="70" y="50" width="700" height="490" fill="#f8f9fa" stroke="#cccccc" stroke-width="1"/>
  <g stroke="#dddddd" stroke-width="1" stroke-dasharray="4,3">
    <line x1="70" y1="50" x2="770" y2="50"/>
    <line x1="70" y1="50" x2="70" y2="540"/>
    <line x1="70" y1="148" x2="770" y2="148"/>
    <line x1="210" y1="50" x2="210" y2="540"/>
    <line x1="70" y1="246" x2="770" y2="246"/>
    <line x1="350" y1="50" x2="350" y2="540"/>
    <line x1="70" y1="344" x2="770" y2="344"/>
    <line x1="490" y1="50" x2="490" y2="540"/>
    <line x1="70" y1="442" x2="770" y2="442"/>
    <line x1="630" y1="50" x2="630" y2="540"/>
    <line x1="70" y1="540" x2="770" y2="540"/>
    <line x1="770" y1="50" x2="770" y2="540"/>
  </g>
  <g stroke="#333333" stroke-width="2">
    <line x1="70" y1="540" x2="770" y2="540"/>
    <line x1="70" y1="50" x2="70" y2="540"/>
  </g>
  <g font-family="Arial,sans-serif" font-size="11" fill="#444444">
    <line x1="70" y1="540" x2="70" y2="545" stroke="#333333" stroke-width="1"/>
    <text x="70" y="558" text-anchor="middle">1</text>
    <line x1="65" y1="50" x2="70" y2="50" stroke="#333333" stroke-width="1"/>
    <text x="62" y="54" text-anchor="end">108</text>
    <line x1="210" y1="540" x2="210" y2="545" stroke="#333333" stroke-width="1"/>
    <text x="210" y="558" text-anchor="middle">3.2</text>
    <line x1="65" y1="148" x2="70" y2="148" stroke="#333333" stroke-width="1"/>
    <text x="62" y="152" text-anchor="end">98.8</text>
    <line x1="350" y1="540" x2="350" y2="545" stroke="#333333" stroke-width="1"/>
    <text x="350" y="558" text-anchor="middle">5.4</text>
    <line x1="65" y1="246" x2="70" y2="246" stroke="#333333" stroke-width="1"/>
    <text x="62" y="250" text-anchor="end">89.5</text>
    <line x1="490" y1="540" x2="490" y2="545" stroke="#333333" stroke-width="1"/>
    <text x="490" y="558" text-anchor="middle">7.6</text>
    <line x1="65" y1="344" x2="70" y2="344" stroke="#333333" stroke-width="1"/>
    <text x="62" y="348" text-anchor="end">80.2</text>
    <line x1="630" y1="540" x2="630" y2="545" stroke="#333333" stroke-width="1"/>
    <text x="630" y="558" text-anchor="middle">9.8</text>
    <line x1="65" y1="442" x2="70" y2="442" stroke="#333333" stroke-width="1"/>
    <text x="62" y="446" text-anchor="end">70.9</text>
    <line x1="770" y1="540" x2="770" y2="545" stroke="#333333" stroke-width="1"/>
    <text x="770" y="558" text-anchor="middle">12</text>
    <line x1="65" y1="540" x2="70" y2="540" stroke="#333333" stroke-width="1"/>
    <text x="62" y="544" text-anchor="end">61.6</text>
  </g>
  <text x="420" y="590" text-anchor="middle" font-family="Arial,sans-serif" font-size="13" fill="#222222">X</text>
  <text transform="rotate(-90)" x="-295" y="18" text-anchor="middle" font-family="Arial,sans-serif" font-size="13" fill="#222222">Y</text>
  <text x="420" y="38" text-anchor="middle" font-family="Arial,sans-serif" font-size="16" font-weight="bold" fill="#111111">Revenue Growth Curve</text>
  <clipPath id="plotarea">
    <rect x="70" y="50" width="700" height="490"/>
  </clipPath>
  <g clip-path="url(#plotarea)">
    <circle cx="70" cy="506.591" r="4" fill="#2196F3" opacity="0.8"/>
    <circle cx="133.636" cy="540" r="4" fill="#2196F3" opacity="0.8"/>
    <circle cx="197.273" cy="436.813" r="4" fill="#2196F3" opacity="0.8"/>
    <circle cx="260.909" cy="352.763" r="4" fill="#2196F3" opacity="0.8"/>
    <circle cx="324.545" cy="294.883" r="4" fill="#2196F3" opacity="0.8"/>
    <circle cx="388.182" cy="240.521" r="4" fill="#2196F3" opacity="0.8"/>
    <circle cx="451.818" cy="270.326" r="4" fill="#2196F3" opacity="0.8"/>
    <circle cx="515.455" cy="194.687" r="4" fill="#2196F3" opacity="0.8"/>
    <circle cx="579.091" cy="167.081" r="4" fill="#2196F3" opacity="0.8"/>
    <circle cx="642.727" cy="205.945" r="4" fill="#2196F3" opacity="0.8"/>
    <circle cx="706.364" cy="145.522" r="4" fill="#2196F3" opacity="0.8"/>
    <circle cx="770" cy="73.3333" r="4" fill="#2196F3" opacity="0.8"/>
  </g>
  <rect x="640" y="60" width="120" height="30" fill="white" stroke="#cccccc" stroke-width="1" rx="3"/>
  <rect x="648" y="70" width="14" height="12" fill="#2196F3" rx="2"/>
  <text x="668" y="76" font-family="Arial,sans-serif" font-size="11" fill="#333333">sqrt(Revenue)</text>
</svg>
