<svg width="200" height="200" viewBox="28 44 144 122" fill="none" xmlns="http://www.w3.org/2000/svg">
  <defs>
    <radialGradient id="crown" cx="40%" cy="35%" r="65%">
      <stop offset="0%"   stop-color="#80bfff"/>
      <stop offset="100%" stop-color="#0f2d8a"/>
    </radialGradient>
    <radialGradient id="hl" cx="25%" cy="25%" r="75%">
      <stop offset="0%"   stop-color="#a8d4ff"/>
      <stop offset="100%" stop-color="#1a56db"/>
    </radialGradient>
    <linearGradient id="shadow" x1="0%" y1="0%" x2="100%" y2="100%">
      <stop offset="0%"   stop-color="#1a56db"/>
      <stop offset="100%" stop-color="#030a20"/>
    </linearGradient>
  </defs>
  <polygon points="75,50 125,50 155,80 45,80" fill="url(#crown)" stroke="#0f2d8a" stroke-width="2" stroke-linejoin="bevel"/>
  <polygon points="45,80 72,80 100,160 45,80" fill="url(#hl)" stroke="none"/>
  <polygon points="72,80 99,80 100,160 72,80" fill="#2d6ef0" stroke="none"/>
  <polygon points="99,80 126,80 100,160 99,80" fill="#1a3a8a" stroke="none"/>
  <polygon points="126,80 155,80 100,160 126,80" fill="url(#shadow)" stroke="none"/>
  <polygon points="45,80 155,80 100,160" fill="none" stroke="#1a56db" stroke-width="2" stroke-linejoin="bevel"/>
  <polygon points="88,53 112,53 122,68 84,68" fill="white" opacity="0.12"/>
  <g transform="translate(152,62)">
    <polygon points="0,-9 2.5,-2.5 9,0 2.5,2.5 0,9 -2.5,2.5 -9,0 -2.5,-2.5" fill="#ffffff" opacity="0.95"/>
  </g>
</svg>
